# xmcd CD database file
#
# Track frame offsets:
#	150
#	16245
#	33548
#	50479
#	70338
#	82750
#	95171
#	116930
#	128892
#	156348
#	172278
#	190160
#	208678
#	226639
#	243073
#	258701
#	276161
#	291475
#	308423
#
# Disc length: 4412 seconds
#
# Revision: 0
# Processed by: cddbd v1.5.2PL0 Copyright (c) Steve Scherf et al.
# Submitted via: CDex 1.70beta2
#
DISCID=14113a13
DTITLE=The Dreamboat Ramblers - This Side of Heaven
DYEAR=2005
DGENRE=Jazz
TTITLE0=Hands of God
TTITLE1=Holding my Saviour's Hand
TTITLE2=Do you know my Jesus
TTITLE3=Donwn by the Riverside
TTITLE4=Lead me
TTITLE5=When Jesus comes
TTITLE6=Oh Lord, is it I
TTITLE7=Sweet Fields
TTITLE8=His Eye is on the Sparrow
TTITLE9=Howard's Hymm
TTITLE10=In the Garden
TTITLE11=it is no secret
TTITLE12=Mary wore a golden Chain
TTITLE13=an Evening Prayer
TTITLE14=if we'll never meet again this side of Heaven
TTITLE15=I'll fly away
TTITLE16=Let God abide
TTITLE17=when I move to the Sky
TTITLE18=the Storm is passing over
EXTD=YEAR: 2005
EXTT0=
EXTT1=
EXTT2=
EXTT3=
EXTT4=
EXTT5=
EXTT6=
EXTT7=
EXTT8=
EXTT9=
EXTT10=
EXTT11=
EXTT12=
EXTT13=
EXTT14=
EXTT15=
EXTT16=
EXTT17=
EXTT18=
PLAYORDER=
